<?xml version="1.0" encoding="UTF-8" standalone="no"?>
<!-- Created with Inkscape (http://www.inkscape.org/) -->

<svg
   width="266.69229mm"
   height="266.69229mm"
   viewBox="0 0 944.97266 944.97268"
   id="svg2"
   version="1.1"
   inkscape:version="1.1.2 (0a00cf5339, 2022-02-04)"
   sodipodi:docname="trial.svg"
   xmlns:inkscape="http://www.inkscape.org/namespaces/inkscape"
   xmlns:sodipodi="http://sodipodi.sourceforge.net/DTD/sodipodi-0.dtd"
   xmlns="http://www.w3.org/2000/svg"
   xmlns:svg="http://www.w3.org/2000/svg"
   xmlns:rdf="http://www.w3.org/1999/02/22-rdf-syntax-ns#"
   xmlns:cc="http://creativecommons.org/ns#"
   xmlns:dc="http://purl.org/dc/elements/1.1/">
  <defs
     id="defs4" />
  <sodipodi:namedview
     id="base"
     pagecolor="#ffffff"
     bordercolor="#666666"
     borderopacity="1.0"
     inkscape:pageopacity="0.0"
     inkscape:pageshadow="2"
     inkscape:zoom="0.35"
     inkscape:cx="432.85714"
     inkscape:cy="718.57143"
     inkscape:document-units="px"
     inkscape:current-layer="layer1"
     showgrid="false"
     inkscape:window-width="1920"
     inkscape:window-height="1015"
     inkscape:window-x="0"
     inkscape:window-y="0"
     inkscape:window-maximized="1"
     fit-margin-top="0"
     fit-margin-left="0"
     fit-margin-right="0"
     fit-margin-bottom="0"
     inkscape:pagecheckerboard="0" />
  <metadata
     id="metadata7">
    <rdf:RDF>
      <cc:Work
         rdf:about="">
        <dc:format>image/svg+xml</dc:format>
        <dc:type
           rdf:resource="http://purl.org/dc/dcmitype/StillImage" />
        <dc:title />
      </cc:Work>
    </rdf:RDF>
  </metadata>
  <g
     inkscape:label="Layer 1"
     inkscape:groupmode="layer"
     id="layer1"
     transform="translate(4529.7209,-676.74657)">
    <rect
       style="color:#000000;display:inline;overflow:visible;visibility:visible;opacity:1;fill:#e6e6e6;fill-opacity:1;fill-rule:nonzero;stroke:#000000;stroke-width:19.04966164;stroke-linecap:butt;stroke-linejoin:miter;stroke-miterlimit:4;stroke-dasharray:none;stroke-dashoffset:0;stroke-opacity:1;marker:none;enable-background:accumulate"
       id="rect4234"
       width="996.39423"
       height="301.89957"
       x="-4179.7256"
       y="-2207.2175"
       transform="matrix(0.70710678,-0.70710678,0.70710678,0.70710678,0,0)" />
    <g
       aria-label="TRIAL"
       transform="rotate(-45.207234)"
       id="text4136-7"
       style="line-height:0%;font-family:'Arial Black';-inkscape-font-specification:'Arial Black, ';letter-spacing:0px;word-spacing:0px;opacity:1;fill:#e6e6e6;stroke:#000000;stroke-width:14.4396">
      <path
         d="m -4135.2033,-2168.51 h 186.5963 v 49.0544 h -62.6053 v 149.6022 h -61.3857 v -149.6022 h -62.6053 z"
         style="font-size:277.523px;line-height:1.25"
         id="path10" />
      <path
         d="M -3920.0146,-1969.8534 V -2168.51 h 102.3095 q 28.457,0 43.4985,4.8783 15.0415,4.8784 24.2562,18.1583 9.2146,13.1444 9.2146,32.1157 0,16.5321 -7.0465,28.5924 -7.0465,11.9249 -19.3778,19.3779 -7.8596,4.7428 -21.546,7.8595 10.9763,3.6588 15.9901,7.3175 3.3877,2.4392 9.7567,10.4342 6.5044,7.9951 8.6726,12.3314 l 29.6765,57.5914 h -69.3808 l -32.7932,-60.7082 q -6.2334,-11.7893 -11.1118,-15.3125 -6.6399,-4.6073 -15.0415,-4.6073 h -5.4204 v 80.628 z m 61.6567,-118.1641 h 25.8823 q 4.2008,0 16.2611,-2.7102 6.0979,-1.2196 9.8922,-6.2334 3.9298,-5.0138 3.9298,-11.5183 0,-9.6211 -6.098,-14.7705 -6.0979,-5.1494 -22.901,-5.1494 h -26.9664 z"
         style="font-size:277.523px;line-height:1.25"
         id="path12" />
      <path
         d="m -3702.5222,-2168.51 h 61.5212 v 198.6566 h -61.5212 z"
         style="font-size:277.523px;line-height:1.25"
         id="path14" />
      <path
         d="m -3474.7311,-2002.6466 h -69.9228 l -9.6211,32.7932 h -62.7408 l 74.6656,-198.6566 h 66.9416 l 74.6656,198.6566 h -64.2314 z m -12.8734,-42.9565 -21.9525,-71.4134 -21.817,71.4134 z"
         style="font-size:277.523px;line-height:1.25"
         id="path16" />
      <path
         d="m -3381.0941,-2168.51 h 61.3857 v 149.7378 h 95.805 v 48.9188 h -157.1907 z"
         style="font-size:277.523px;line-height:1.25"
         id="path18" />
    </g>
  </g>
</svg>
