<?xml version="1.0" encoding="UTF-8" standalone="no"?>
<svg
   xmlns:dc="http://purl.org/dc/elements/1.1/"
   xmlns:cc="http://creativecommons.org/ns#"
   xmlns:rdf="http://www.w3.org/1999/02/22-rdf-syntax-ns#"
   xmlns:svg="http://www.w3.org/2000/svg"
   xmlns="http://www.w3.org/2000/svg"
   id="svg2"
   version="1.1"
   viewBox="0 0 100 100">
  <defs
     id="defs24" />
  <metadata
     id="metadata4">
    <rdf:RDF>
      <cc:Work
         rdf:about="">
        <dc:format>image/svg+xml</dc:format>
        <dc:type
           rdf:resource="http://purl.org/dc/dcmitype/StillImage" />
        <dc:title></dc:title>
      </cc:Work>
    </rdf:RDF>
  </metadata>
  <g
     id="g6"
     transform="translate(-319 -1028.4)">
    <text
       id="text8"
       fill="#000000"
       font-family="Sans"
       x="56.058395"
       y="867.10254"
       line-height="125%"
       font-size="15px"
       xml:space="preserve"
       style="word-spacing:0px;letter-spacing:0px"><tspan
         id="tspan10"
         x="56.058395"
         y="867.10254" /></text>
    <text
       id="text12"
       font-family="Sans"
       x="86.490097"
       y="949.85541"
       line-height="125%"
       font-size="15px"
       xml:space="preserve"
       fill-opacity="0"
       style="word-spacing:0px;letter-spacing:0px"><tspan
         id="tspan14"
         x="86.490097"
         y="949.85541" /></text>
    <path
       id="path16"
       fill="#883996"
       d="m369 1028.4a50 50 0 0 0 -50 50 50 50 0 0 0 50 50 50 50 0 0 0 50 -50 50 50 0 0 0 -50 -50zm0 8a42 42 0 0 1 42 42 42 42 0 0 1 -42 42 42 42 0 0 1 -42 -42 42 42 0 0 1 42 -42z"
       style="color:#000000" />
    <rect
       id="rect18"
       fill="#883996"
       x="-549.45"
       y="1019.1"
       width="95"
       height="8"
       ry="1.7737"
       rx="2.3403"
       transform="rotate(-45)"
       style="color:#000000" />
    <path
       style="display:inline;opacity:0.1;fill:#ffffff;fill-opacity:1"
       d="m 367.61844,1047.6059 c -1.29043,0 -2.53033,0.8289 -3.10742,2.0762 -0.24117,0.5212 -0.24543,0.6391 -0.30273,12.0156 l -0.0566,11.3984 c -0.0287,0.057 -0.0549,0.1162 -0.0899,0.1661 l -0.23437,0.2031 c -0.55085,0.4737 -1.32103,0.3039 -1.63672,-0.3614 -0.15685,-0.3305 -0.17961,-1.488 -0.17969,-9.3242 l 0,-8.9453 -0.33203,-0.6933 c -0.62359,-1.3002 -1.66114,-1.961 -3.08008,-1.961 -1.55967,0 -2.78266,0.8866 -3.33593,2.416 -0.005,0.014 -0.0106,0.1889 -0.0156,0.2325 l -0.002,0.01 0,0.043 c -0.079,0.7874 -0.13277,5.1 -0.17188,14.4824 l -0.0566,14.1426 16.1836,-16.1836 c -0.0187,-1.7866 -0.0395,-3.5448 -0.0508,-5.7774 l -0.0586,-11.4492 -0.3125,-0.5937 c -0.38934,-0.7381 -1.20996,-1.4717 -1.91211,-1.711 -0.29406,-0.1002 -0.85605,-0.1816 -1.24805,-0.1816 z m 9.1875,2.2793 c -1.34253,-10e-4 -2.47934,0.7143 -3.11718,1.9629 l -0.28516,0.5566 -0.0195,3.4981 c -0.0136,1.1416 -0.0173,2.748 -0.0234,4.3672 l -0.0137,2.4297 c -0.005,0.9639 -0.0159,1.6045 -0.0234,2.496 l 6.9336,-6.9335 -0.0293,-5.7422 -0.26562,-0.5782 c -0.589,-1.2816 -1.77726,-2.0556 -3.15626,-2.0566 z m 12.58399,15.9375 -6.9707,6.9707 c -0.0359,1.8386 -0.0878,2.651 -0.22461,2.8027 -0.12722,0.1412 -0.35553,0.3051 -0.50782,0.3633 -0.36729,0.1404 -1.01247,-0.076 -1.19921,-0.4023 -0.029,-0.051 -0.053,-0.302 -0.0742,-0.7578 l -25.10743,25.1074 c 3.16981,3.9152 7.61676,6.1857 13.35547,6.789 0.73783,0.078 1.93114,0.1095 3.13086,0.1075 0.0207,-10e-5 0.0398,0 0.0605,0 0.42919,0 0.82302,-0.013 1.23438,-0.023 0.0535,0 0.10729,0 0.16015,0 0.83289,-0.025 1.60516,-0.061 2.08789,-0.125 2.49221,-0.329 4.32293,-0.877 6.23633,-1.8653 4.00228,-2.0671 6.62787,-5.8728 7.48633,-10.7539 l 0.18164,-0.7988 0.002,-0.5176 c 0.0247,-0.2306 0.0512,-0.4605 0.0684,-0.6953 0.11488,-1.569 0.13614,-17.2255 0.0801,-26.1973 z m -42.61133,9.6973 c -2.98981,-0.1 -5.06059,3.2153 -3.58789,6.1464 0.18366,0.3656 2.71909,4.2405 5.38672,8.2754 l 6.32422,-6.3242 -2.20117,-3.0254 c -1.27226,-1.7489 -2.55728,-3.4224 -2.85547,-3.7187 -0.66045,-0.6563 -1.54089,-1.1181 -2.45703,-1.2871 -0.20672,-0.038 -0.41006,-0.06 -0.60938,-0.066 z"
       id="path5759" />
  </g>
</svg>
