<?xml version="1.0" encoding="UTF-8" standalone="no"?>
<svg xmlns:rdf="http://www.w3.org/1999/02/22-rdf-syntax-ns#" xmlns="http://www.w3.org/2000/svg" viewBox="0 0 100 100" version="1.1" xmlns:cc="http://creativecommons.org/ns#" xmlns:dc="http://purl.org/dc/elements/1.1/">
<metadata>
<rdf:RDF>
<cc:Work rdf:about="">
<dc:format>image/svg+xml</dc:format>
<dc:type rdf:resource="http://purl.org/dc/dcmitype/StillImage"/>
<dc:title/>
</cc:Work>
</rdf:RDF>
</metadata>
<g transform="translate(-319 -1028.4)">
<text font-size="15px" xml:space="preserve" style="word-spacing:0px;letter-spacing:0px" y="867.10254" x="56.058395" font-family="Sans" line-height="125%" fill="#000000"><tspan y="867.10254" x="56.058395"/></text>
<text font-size="15px" fill-opacity="0" xml:space="preserve" style="word-spacing:0px;letter-spacing:0px" line-height="125%" y="949.85541" x="86.490097" font-family="Sans"><tspan y="949.85541" x="86.490097"/></text>
<path d="m369 1028.4a50 50 0 0 0 -50 50 50 50 0 0 0 50 50 50 50 0 0 0 50 -50 50 50 0 0 0 -50 -50zm0 8a42 42 0 0 1 42 42 42 42 0 0 1 -42 42 42 42 0 0 1 -42 -42 42 42 0 0 1 42 -42z" style="color:#000000" fill="#883996"/>
<rect style="color:#000000" transform="rotate(-45)" rx="2.3403" ry="1.7737" height="8" width="95" y="1019.1" x="-549.45" fill="#883996"/>
<path opacity=".1" d="m367.62 1047.6c-1.2904 0-2.5303 0.8289-3.1074 2.0762-0.24117 0.5212-0.24543 0.6391-0.30273 12.016l-0.0566 11.398c-0.0287 0.057-0.0549 0.1162-0.0899 0.1661l-0.23437 0.2031c-0.55085 0.4737-1.321 0.3039-1.6367-0.3614-0.15685-0.3305-0.17961-1.488-0.17969-9.3242v-8.9453l-0.33203-0.6933c-0.62359-1.3002-1.6611-1.961-3.0801-1.961-1.5597 0-2.7827 0.8866-3.3359 2.416-0.005 0.014-0.0106 0.1889-0.0156 0.2325l-0.002 0.01v0.043c-0.079 0.7874-0.13277 5.1-0.17188 14.482l-0.0566 14.143 16.184-16.184c-0.0187-1.7866-0.0395-3.5448-0.0508-5.7774l-0.0586-11.449-0.3125-0.5937c-0.38934-0.7381-1.21-1.4717-1.9121-1.711-0.29406-0.1002-0.85605-0.1816-1.248-0.1816zm9.1875 2.2793c-1.3425-0.001-2.4793 0.7143-3.1172 1.9629l-0.28516 0.5566-0.0195 3.4981c-0.0136 1.1416-0.0173 2.748-0.0234 4.3672l-0.0137 2.4297c-0.005 0.9639-0.0159 1.6045-0.0234 2.496l6.9336-6.9335-0.0293-5.7422-0.26562-0.5782c-0.589-1.2816-1.7773-2.0556-3.1563-2.0566zm12.584 15.938-6.9707 6.9707c-0.0359 1.8386-0.0878 2.651-0.22461 2.8027-0.12722 0.1412-0.35553 0.3051-0.50782 0.3633-0.36729 0.1404-1.0125-0.076-1.1992-0.4023-0.029-0.051-0.053-0.302-0.0742-0.7578l-25.107 25.107c3.1698 3.9152 7.6168 6.1857 13.355 6.789 0.73783 0.078 1.9311 0.1095 3.1309 0.1075 0.0207-0.0001 0.0398 0 0.0605 0 0.42919 0 0.82302-0.013 1.2344-0.023h0.16015c0.83289-0.025 1.6052-0.061 2.0879-0.125 2.4922-0.329 4.3229-0.877 6.2363-1.8653 4.0023-2.0671 6.6279-5.8728 7.4863-10.754l0.18164-0.7988 0.002-0.5176c0.0247-0.2306 0.0512-0.4605 0.0684-0.6953 0.11488-1.569 0.13614-17.226 0.0801-26.197zm-42.611 9.6973c-2.9898-0.1-5.0606 3.2153-3.5879 6.1464 0.18366 0.3656 2.7191 4.2405 5.3867 8.2754l6.3242-6.3242-2.2012-3.0254c-1.2723-1.7489-2.5573-3.4224-2.8555-3.7187-0.66045-0.6563-1.5409-1.1181-2.457-1.2871-0.20672-0.038-0.41006-0.06-0.60938-0.066z" fill="#fff"/>
</g>
</svg>
