<?xml version="1.0" encoding="UTF-8" standalone="no"?>
<svg xmlns:rdf="http://www.w3.org/1999/02/22-rdf-syntax-ns#" xmlns="http://www.w3.org/2000/svg" viewBox="0 0 100 100" version="1.1" xmlns:cc="http://creativecommons.org/ns#" xmlns:dc="http://purl.org/dc/elements/1.1/">
<metadata>
<rdf:RDF>
<cc:Work rdf:about="">
<dc:format>image/svg+xml</dc:format>
<dc:type rdf:resource="http://purl.org/dc/dcmitype/StillImage"/>
<dc:title/>
</cc:Work>
</rdf:RDF>
</metadata>
<text style="word-spacing:0px;letter-spacing:0px" xml:space="preserve" font-size="15px" y="-161.29745" x="-262.94159" font-family="Sans" line-height="125%" fill="#000000"><tspan y="-161.29745" x="-262.94159"/></text>
<text style="word-spacing:0px;letter-spacing:0px" fill-opacity="0" xml:space="preserve" font-size="15px" y="-78.544594" x="-232.5099" font-family="Sans" line-height="125%"><tspan y="-78.544594" x="-232.5099"/></text>
<path style="color:#000000" fill="#883996" d="m50 0a50 50 0 0 0 -50 50 50 50 0 0 0 50 50 50 50 0 0 0 50 -50 50 50 0 0 0 -50 -50zm0 8a42 42 0 0 1 42 42 42 42 0 0 1 -42 42 42 42 0 0 1 -42 -42 42 42 0 0 1 42 -42z"/>
<rect ry="1.7737" style="color:#000000" rx="2.3403" transform="rotate(-45)" height="8" width="95" y="66.344" x="-47.828" fill="#883996"/>
<path opacity=".304" style="color:#000000" d="m54.545 14.795c-4.15 0.001-7.514 2.513-7.518 5.611 0 1.867 1.242 3.611 3.315 4.655 5.959 3.511-3.007 6.62-6.324 6.58h-12.635v12.634c0.042 3.32-3.066 12.301-6.58 6.319-1.043-2.07-2.785-3.313-4.649-3.317-3.104-0.002-5.619 3.371-5.617 7.528 0.001 4.154 2.516 7.519 5.617 7.517 1.868-0.001 3.614-1.246 4.657-3.322 2.26-3.836 4.345-1.482 5.537 1.566 9.979-10.001 20.131-19.871 30.029-29.933-3.085-1.189-5.51-3.292-1.629-5.572 2.073-1.044 3.315-2.788 3.314-4.655-0.004-3.098-3.367-5.61-7.517-5.611zm21.74 16.846c-14.809 15.129-30.04 29.847-44.902 44.89v1.436h13.939 0.045c0.123 0.001 1.025-0.307 1.791-0.498-1.619-1.389-2.895-3.101-2.894-5.264v-0.008c0.003-2.52 1.514-4.683 3.439-6.019 1.926-1.336 4.329-2.031 6.908-2.032 2.58 0.001 4.983 0.696 6.909 2.032 1.925 1.336 3.435 3.499 3.439 6.019v0.008c0 2.163-1.278 3.875-2.897 5.264 0.765 0.19 1.671 0.499 1.793 0.498h0.102 13.75v-14.203-0.041c0.001-0.12-0.329-0.991-0.531-1.729-1.48 1.565-3.304 2.793-5.608 2.795-2.69 0.002-5-1.457-6.427-3.322-1.428-1.865-2.174-4.196-2.174-6.696-0.001-2.501 0.746-4.83 2.174-6.697 1.427-1.867 3.735-3.332 6.427-3.33h0.008c2.303 0.004 4.121 1.237 5.6 2.803 0.202-0.738 0.535-1.608 0.533-1.727v-0.043-0.056-14.08h-1.424z" fill="#fff"/>
</svg>
