<?xml version="1.0" encoding="UTF-8" standalone="no"?>
<svg xmlns:rdf="http://www.w3.org/1999/02/22-rdf-syntax-ns#" xmlns="http://www.w3.org/2000/svg" viewBox="0 0 100 100" version="1.1" xmlns:cc="http://creativecommons.org/ns#" xmlns:dc="http://purl.org/dc/elements/1.1/">
<metadata>
<rdf:RDF>
<cc:Work rdf:about="">
<dc:format>image/svg+xml</dc:format>
<dc:type rdf:resource="http://purl.org/dc/dcmitype/StillImage"/>
<dc:title/>
</cc:Work>
</rdf:RDF>
</metadata>
<g transform="translate(-319 -1028.4)">
<text font-size="15px" xml:space="preserve" style="word-spacing:0px;letter-spacing:0px" y="867.10254" x="56.058395" font-family="Sans" line-height="125%" fill="#000000"><tspan y="867.10254" x="56.058395"/></text>
<text font-size="15px" fill-opacity="0" xml:space="preserve" style="word-spacing:0px;letter-spacing:0px" line-height="125%" y="949.85541" x="86.490097" font-family="Sans"><tspan y="949.85541" x="86.490097"/></text>
<path d="m369 1028.4a50 50 0 0 0 -50 50 50 50 0 0 0 50 50 50 50 0 0 0 50 -50 50 50 0 0 0 -50 -50zm0 8a42 42 0 0 1 42 42 42 42 0 0 1 -42 42 42 42 0 0 1 -42 -42 42 42 0 0 1 42 -42z" style="color:#000000" fill="#883996"/>
<rect style="color:#000000" transform="rotate(-45)" rx="2.3403" ry="1.7737" height="8" width="95" y="1019.1" x="-549.45" fill="#883996"/>
<path opacity=".1" style="color:#000000" d="m343 256v43.059c0.99971-1.022 2.0056-2.0398 3.0098-3.0586h-0.01v-37h37.17c1.0077-0.97132 1.9966-1.9807 2.9805-3h-43.15zm14 6a4 4 0 0 0 -3.8691 3.0059 4 4 0 0 0 -0.13 -0.01 4 4 0 0 0 -4 4 4 4 0 0 0 4 4 4 4 0 0 0 0.3418 -0.0176 4 4 0 0 0 2.66 1.02 4 4 0 0 0 1.17 -0.18 4 4 0 0 0 2.83 1.18 4 4 0 0 0 2.5 -0.88 4 4 0 0 0 2.5 0.88 4 4 0 0 0 4 -4 4 4 0 0 0 -2.0371 -3.4824 4 4 0 0 0 0.04 -0.52 4 4 0 0 0 -4 -4 4 4 0 0 0 -2.5742 0.94336 4 4 0 0 0 -3.43 -1.94zm38 1.9004c-0.99999 1.0032-2.0007 2.0058-3 3.0098v29.09h-29.004c-4.0202 4.0101-8.0426 8.018-12.09 12h44.09v-44.1zm-16.346 16.416c-4.5434 4.5702-9.0978 9.129-13.656 13.684h25.01v-8.752c-0.11712-0.0416-0.22988-0.0968-0.34961-0.12891-3.56-0.525-5.9221-3.7265-9.3867-4.4922-0.53753-0.14331-1.0734-0.2412-1.6094-0.31054zm-19.576 0.85547c-1.7656-0.009-3.4941 0.29571-5.0391 1.291-1.9936 1.6127-3.6577 4.0421-6.0391 5.0625v6.457c4.2135-4.2564 8.4571-8.4907 12.709-12.719-0.54477-0.051-1.089-0.0891-1.6309-0.0918z" transform="translate(0 796.36)" fill="#fff"/>
</g>
</svg>
