<?xml version="1.0" standalone="no"?>
<!DOCTYPE svg PUBLIC "-//W3C//DTD SVG 1.1//EN" "http://www.w3.org/Graphics/SVG/1.1/DTD/svg11.dtd" >
<svg xmlns="http://www.w3.org/2000/svg">
<metadata></metadata>
<defs>
<font id="epflul" horiz-adv-x="1193" >
<font-face units-per-em="2048" ascent="1638" descent="-410" />
<missing-glyph horiz-adv-x="681" />
<glyph horiz-adv-x="2048" />
<glyph horiz-adv-x="2048" />
<glyph unicode="&#xd;" horiz-adv-x="2048" />
<glyph unicode=" "  horiz-adv-x="681" />
<glyph unicode="&#x09;" horiz-adv-x="681" />
<glyph unicode="&#xa0;" horiz-adv-x="681" />
<glyph unicode="!" horiz-adv-x="512" d="M170 0v170h172v-170h-172zM170 342v1194h172v-1194h-172z" />
<glyph unicode="&#x22;" horiz-adv-x="854" d="M170 1024v512h172v-512h-172zM512 1024v512h170v-512h-170z" />
<glyph unicode="#" d="M170 512v170h172v172h-172v170h172v342h170v-342h170v342h172v-342h170v-170h-170v-172h170v-170h-170v-342h-172v342h-170v-342h-170v342h-172zM512 682h170v172h-170v-172z" />
<glyph unicode="$" d="M86 1126q0 82 28.5 157t84 133.5t134.5 97t179 51.5v141h170v-141q180 -23 289.5 -125.5t132.5 -245.5h-174q-20 74 -83 128t-165 71v-545q100 -12 179 -51t134.5 -97.5t85 -133t29.5 -156.5q0 -84 -29.5 -158t-85 -132.5t-134.5 -97t-179 -51.5v-141h-170v141 q-90 10 -163 43t-126 82t-87 111.5t-46 134.5h174q20 -74 83 -128t165 -71v545q-100 12 -179 51t-134.5 97.5t-84 132t-28.5 157.5zM256 1126q0 -98 66.5 -170.5t189.5 -95.5v533q-123 -20 -189.5 -94t-66.5 -173zM682 143q125 20 190.5 94.5t65.5 172.5t-65.5 171.5 t-190.5 94.5v-533z" />
<glyph unicode="&#x26;" horiz-adv-x="1228" d="M170 324q0 63 20.5 118.5t55.5 102.5l174 223l-174 223q-35 47 -55.5 102.5t-20.5 118.5q0 74 28.5 139.5t77 113.5t114 77t138.5 29q74 0 139.5 -29t114.5 -77t77 -113.5t28 -139.5q0 -127 -76 -221l-174 -223l237 -303l146 186h219l-254 -325l254 -326h-219l-143 186 l-66 -82q-49 -63 -123 -101t-160 -38q-74 0 -139 29t-113.5 77t-77 113.5t-28.5 139.5zM342 324q0 -78 54.5 -132.5t131.5 -54.5q47 0 85 19.5t65 52.5l90 117l-240 303l-147 -189q-39 -51 -39 -116zM342 1212q0 -66 39 -116l147 -189l148 189q41 50 41 116q0 39 -14.5 73 t-40 59.5t-60.5 40t-74 14.5q-78 0 -132 -54.5t-54 -132.5z" />
<glyph unicode="'" horiz-adv-x="512" d="M170 1024v512h172v-512h-172z" />
<glyph unicode="(" horiz-adv-x="854" d="M137 768q0 160 41 305.5t114 256t172 176t218 65.5v-172q-80 0 -148.5 -52.5t-118.5 -139.5t-79 -201.5t-29 -237.5t29 -237.5t79 -201.5t118.5 -139.5t148.5 -52.5v-172q-119 0 -218 65.5t-172 176t-114 256t-41 305.5z" />
<glyph unicode=")" horiz-adv-x="854" d="M170 -35v172q80 0 148.5 52.5t119.5 139.5t80 201.5t29 237.5t-29 237.5t-80 201.5t-119.5 139.5t-148.5 52.5v172q119 0 219 -65.5t173 -176t114 -256t41 -305.5t-41 -305.5t-114 -256t-173 -176t-219 -65.5z" />
<glyph unicode="*" d="M170 512v170h279l-140 242l150 86l139 -242l139 242l148 -86l-140 -242h279v-170h-279l140 -242l-148 -86l-139 242l-139 -242l-150 86l140 242h-279z" />
<glyph unicode="+" d="M170 512v170h342v342h170v-342h342v-170h-342v-342h-170v342h-342z" />
<glyph unicode="," horiz-adv-x="512" d="M170 170h172v-512h-172v512z" />
<glyph unicode="-" d="M170 512v170h854v-170h-854z" />
<glyph unicode="." horiz-adv-x="512" d="M170 0v170h172v-170h-172z" />
<glyph unicode="/" horiz-adv-x="854" d="M106 0l461 1536h181l-461 -1536h-181z" />
<glyph unicode="0" horiz-adv-x="1228" d="M170 410v374q0 92 35 173t95 141.5t141 95.5t173 35t173 -35t141.5 -95.5t95.5 -141t35 -173.5v-374q0 -92 -35 -173t-95.5 -141.5t-141 -95.5t-173.5 -35q-92 0 -173 35t-141 95.5t-95 141t-35 173.5zM342 410q0 -57 21.5 -106.5t58.5 -86.5t86 -58.5t106 -21.5 t106.5 21.5t86.5 58.5t58.5 86t21.5 107v374q0 57 -21.5 107.5t-58.5 87.5t-86 58.5t-107 21.5q-57 0 -106 -21.5t-86 -58.5t-58.5 -87t-21.5 -108v-374z" />
<glyph unicode="1" horiz-adv-x="1228" d="M358 774v242l179 178h163v-1194h-172v944z" />
<glyph unicode="2" horiz-adv-x="1228" d="M170 0v176l592 379q57 37 91 97.5t34 131.5q0 57 -21.5 107.5t-58.5 87.5t-86 58.5t-107 21.5q-57 0 -106 -21.5t-86 -58.5t-58.5 -87t-21.5 -108h-172q0 92 35 173t95 141.5t141 95.5t173 35t173 -35t141.5 -95.5t95.5 -141.5t35 -173q0 -117 -54.5 -214t-146.5 -156 l-381 -244h582v-170h-889z" />
<glyph unicode="3" horiz-adv-x="1228" d="M170 68h172q0 -55 21.5 -105.5t58.5 -87.5t86 -58.5t106 -21.5t106.5 21.5t86.5 58.5t58.5 87t21.5 106q0 57 -21.5 107t-58.5 87t-86 58.5t-107 21.5v170q57 0 106.5 21.5t86.5 58.5t58.5 87t21.5 105q0 57 -21.5 107.5t-58.5 87.5t-86 58.5t-107 21.5q-57 0 -106 -21.5 t-86 -58.5t-58.5 -87t-21.5 -108h-172q0 92 35 173t95 141.5t141 95.5t173 35t173 -35t141.5 -95.5t95.5 -141t35 -173.5q0 -117 -61.5 -212t-159.5 -146q98 -49 159.5 -144t61.5 -214q0 -92 -35 -172t-95.5 -140.5t-141 -95.5t-173.5 -35q-92 0 -173 35t-141 95.5t-95 140 t-35 172.5z" />
<glyph unicode="4" horiz-adv-x="1228" d="M147 170v176l711 848h223l-719 -852h502v340h170v-1024h-170v512h-717z" />
<glyph unicode="5" horiz-adv-x="1228" d="M170 68h172q0 -55 21.5 -105.5t58.5 -87.5t86 -58.5t106 -21.5t106.5 21.5t86.5 58.5t58.5 87t21.5 106v172q0 55 -21.5 105t-58.5 87t-86 58.5t-107 21.5h-409v682h854v-170h-684v-342h239q92 0 173 -35t141.5 -95t95.5 -140t35 -172v-172q0 -92 -35 -172t-95.5 -140.5 t-141 -95.5t-173.5 -35q-92 0 -173 35t-141 95.5t-95 140t-35 172.5z" />
<glyph unicode="6" horiz-adv-x="1228" d="M170 410q0 61 16.5 117.5t44.5 105.5l523 903h198l-397 -688q27 6 59 6q92 0 173 -35t141.5 -95t95.5 -141t35 -173t-35 -173t-95.5 -141.5t-141 -95.5t-173.5 -35q-92 0 -173 35t-141 95.5t-95 141t-35 173.5zM342 410q0 -57 21.5 -106.5t58.5 -86.5t86 -58.5t106 -21.5 t106.5 21.5t86.5 58.5t58.5 86.5t21.5 106.5t-21.5 106t-58.5 86t-86 58.5t-107 21.5q-57 0 -106 -21.5t-86 -58.5t-58.5 -86t-21.5 -106z" />
<glyph unicode="7" horiz-adv-x="1228" d="M170 1024v170h889v-170l-584 -1366h-199l603 1366h-709z" />
<glyph unicode="8" horiz-adv-x="1228" d="M170 410q0 119 61.5 214t159.5 144q-98 49 -159.5 144.5t-61.5 213.5q0 92 35 173t95 141.5t141 95.5t173 35t173 -35t141.5 -95.5t95.5 -141t35 -173.5q0 -119 -61.5 -214t-159.5 -144q98 -49 159.5 -144t61.5 -214q0 -92 -35 -173t-95.5 -141.5t-141 -95.5t-173.5 -35 q-92 0 -173 35t-141 95.5t-95 141t-35 173.5zM342 410q0 -57 21.5 -106.5t58.5 -86.5t86 -58.5t106 -21.5t106.5 21.5t86.5 58.5t58.5 86.5t21.5 106.5t-21.5 106t-58.5 86t-86 58.5t-107 21.5q-57 0 -106 -21.5t-86 -58.5t-58.5 -86t-21.5 -106zM342 1126q0 -57 21.5 -106 t58.5 -86t86 -58.5t106 -21.5t106.5 21.5t86.5 58.5t58.5 86t21.5 106t-21.5 106.5t-58.5 86.5t-86 58.5t-107 21.5q-57 0 -106 -21.5t-86 -58.5t-58.5 -86t-21.5 -107z" />
<glyph unicode="9" horiz-adv-x="1228" d="M170 784q0 92 35 173t95 141.5t141 95.5t173 35t173 -35t141.5 -95.5t95.5 -141.5t35 -173q0 -59 -16.5 -116.5t-45.5 -106.5l-522 -903h-199l398 688q-14 -4 -28.5 -4h-31.5q-92 0 -173 35t-141 95t-95 140t-35 172zM342 784q0 -55 21.5 -105t58.5 -87t86 -58.5 t106 -21.5t106.5 21.5t86.5 58.5t58.5 87t21.5 105q0 57 -21.5 107.5t-58.5 87.5t-86 58.5t-107 21.5q-57 0 -106 -21.5t-86 -58.5t-58.5 -87t-21.5 -108z" />
<glyph unicode=":" horiz-adv-x="512" d="M170 0v170h172v-170h-172zM170 682v172h172v-172h-172z" />
<glyph unicode=";" horiz-adv-x="512" d="M170 170h172v-512h-172v512zM170 682v172h172v-172h-172z" />
<glyph unicode="&#x3c;" horiz-adv-x="829" d="M86 598l449 596h210l-450 -596l450 -598h-210z" />
<glyph unicode="=" d="M170 342v170h854v-170h-854zM170 682v172h854v-172h-854z" />
<glyph unicode="&#x3e;" horiz-adv-x="829" d="M86 0l449 598l-449 596h209l450 -596l-450 -598h-209z" />
<glyph unicode="?" d="M174 1194q8 80 45 148.5t94.5 119.5t130 80t154.5 29q88 0 166 -34t135 -92.5t91 -136t34 -165.5q0 -121 -57.5 -217.5t-155.5 -151.5q-59 -33 -94 -91t-35 -130v-211h-170v211q0 121 57.5 217t155.5 152q59 33 94 91t35 130q0 53 -20.5 99t-55.5 81t-81 55.5t-99 20.5 q-94 0 -163.5 -58.5t-88.5 -146.5h-172zM512 0v170h170v-170h-170z" />
<glyph unicode="@" horiz-adv-x="1323" d="M127 307v240q0 70 26.5 132t73.5 108.5t108.5 73t133.5 26.5q92 0 172 -45v12h170v-672q78 45 124 123t46 172v582q0 70 -26.5 132t-72.5 108.5t-108.5 73t-132.5 26.5q-106 0 -189 -55.5t-124 -147.5h-181q23 80 70 148.5t111.5 118.5t144.5 79t168 29q106 0 199.5 -40 t163 -109.5t109.5 -163t40 -199.5v-582q0 -106 -40 -199.5t-109.5 -163t-162.5 -109.5t-200 -40v47q-78 -47 -172 -47q-72 0 -133.5 26.5t-108.5 74t-73.5 109t-26.5 132.5zM299 307q0 -72 49 -121t121 -49t122 49.5t50 120.5v240q0 72 -50 121t-122 49t-121 -49.5 t-49 -120.5v-240z" />
<glyph unicode="A" horiz-adv-x="1280" d="M-4 0l559 1536h170l559 -1536h-182l-123 342h-678l-123 -342h-182zM365 512h553l-277 762z" />
<glyph unicode="B" horiz-adv-x="1366" d="M170 0v1536h633q88 0 166 -34t135 -91t91 -135t34 -166q0 -104 -46 -193.5t-124 -148.5q78 -59 124 -148.5t46 -193.5q0 -88 -34 -166t-91 -135t-135 -91t-166 -34h-633zM342 170h461q53 0 99 20.5t81 55.5t55.5 81t20.5 99t-20.5 99t-55.5 81t-81 55.5t-99 20.5h-461 v-512zM342 854h461q53 0 99 20.5t81 55.5t55.5 81t20.5 99t-20.5 99t-55.5 81t-81 55.5t-99 20.5h-461v-512z" />
<glyph unicode="C" horiz-adv-x="1280" d="M170 477v582q0 106 40 199.5t109.5 163t162.5 109.5t200 40q88 0 168 -29t144.5 -79t111.5 -118.5t70 -148.5h-181q-41 92 -125 147.5t-188 55.5q-72 0 -133.5 -26.5t-107.5 -73t-72.5 -109t-26.5 -131.5v-582q0 -72 26.5 -133t72.5 -107.5t107.5 -73t133.5 -26.5 q106 0 189 56.5t124 148.5h181q-23 -82 -70 -150.5t-111.5 -118.5t-144.5 -79t-168 -29q-106 0 -199.5 40t-163 109.5t-109.5 163t-40 199.5z" />
<glyph unicode="D" horiz-adv-x="1323" d="M170 0v1536h291q160 0 299 -60.5t243.5 -165t165 -243.5t60.5 -299t-60.5 -299t-165 -243.5t-243.5 -165t-299 -60.5h-291zM342 170h119q123 0 232.5 47t190.5 128t128 190.5t47 232.5t-47 232.5t-128 190.5t-190.5 128t-232.5 47h-119v-1196z" />
<glyph unicode="E" d="M137 426q0 104 46 193.5t124 148.5q-78 59 -124 148.5t-46 193.5q0 88 34 166t91 135t135 91t166 34h461v-170h-461q-53 0 -99 -20.5t-81 -55.5t-55.5 -81t-20.5 -99t20.5 -99t55.5 -81t81 -55.5t99 -20.5h461v-172h-461q-53 0 -99 -20.5t-81 -55.5t-55.5 -81t-20.5 -99 t20.5 -99t55.5 -81t81 -55.5t99 -20.5h461v-170h-461q-88 0 -166 34t-135 91t-91 135t-34 166z" />
<glyph unicode="F" d="M170 0v1536h854v-170h-682v-512h682v-172h-682v-682h-172z" />
<glyph unicode="G" horiz-adv-x="1323" d="M170 477v582q0 106 40 199.5t109.5 163t162.5 109.5t200 40q88 0 168 -29t144.5 -79t111.5 -118.5t70 -148.5h-181q-41 92 -125 147.5t-188 55.5q-72 0 -133.5 -26.5t-107.5 -73t-72.5 -109t-26.5 -131.5v-582q0 -72 26.5 -133t72.5 -107.5t107.5 -73t133.5 -26.5 q70 0 132.5 26.5t109.5 73t73.5 108t26.5 132.5v205h-512v172h682v-377q0 -106 -40 -199.5t-109.5 -163t-163 -109.5t-199.5 -40t-199.5 40t-163 109.5t-109.5 163t-40 199.5z" />
<glyph unicode="H" horiz-adv-x="1366" d="M170 0v1536h172v-682h682v682h170v-1536h-170v682h-682v-682h-172z" />
<glyph unicode="I" horiz-adv-x="512" d="M170 0v1536h172v-1536h-172z" />
<glyph unicode="J" horiz-adv-x="1067" d="M45 342h174q16 -88 87 -146.5t163 -58.5q53 0 99 20.5t81 55.5t55.5 81t20.5 99v973h-512v170h684v-1143q0 -88 -34 -165.5t-92 -136t-136 -92.5t-166 -34q-82 0 -154.5 29t-129 80t-93.5 119.5t-47 148.5z" />
<glyph unicode="K" horiz-adv-x="1366" d="M170 0v1536h172v-737l735 737h242l-768 -768l768 -768h-242l-735 737v-737h-172z" />
<glyph unicode="L" d="M170 0v1536h172v-1366h682v-170h-854z" />
<glyph unicode="M" horiz-adv-x="1536" d="M170 0v1536h172l426 -588l426 588h172v-1536h-172v1245l-426 -586l-426 586v-1245h-172z" />
<glyph unicode="N" horiz-adv-x="1366" d="M170 0v1536h100l754 -754v754h170v-1536h-170v541l-682 684v-1225h-172z" />
<glyph unicode="O" horiz-adv-x="1366" d="M170 477v582q0 106 40 199.5t109.5 163t162.5 109.5t200 40q106 0 199.5 -40t163 -109.5t109.5 -163t40 -199.5v-582q0 -106 -40 -199.5t-109.5 -163t-163 -109.5t-199.5 -40t-199.5 40t-163 109.5t-109.5 163t-40 199.5zM342 477q0 -72 26.5 -133t72.5 -107.5t107.5 -73 t133.5 -26.5q70 0 132.5 26.5t109.5 73t73.5 108t26.5 132.5v582q0 70 -26.5 132t-73.5 108.5t-109.5 73t-132.5 26.5q-72 0 -133.5 -26.5t-107.5 -73t-72.5 -109t-26.5 -131.5v-582z" />
<glyph unicode="P" horiz-adv-x="1280" d="M170 0v1536h633q88 0 166 -34t135 -91t91 -135t34 -166t-34 -166t-91 -136t-135 -92t-166 -34h-461v-682h-172zM342 854h461q53 0 99 20.5t81 55.5t55.5 81t20.5 99t-20.5 99t-55.5 81t-81 55.5t-99 20.5h-461v-512z" />
<glyph unicode="Q" horiz-adv-x="1366" d="M86 973q0 123 47 232.5t128 190.5t189.5 128t231.5 47t232.5 -47t190.5 -128t128 -190.5t47 -232.5q0 -113 -39 -213.5t-108.5 -179t-162.5 -131t-202 -68.5q2 -51 23.5 -95t55.5 -77t80 -52.5t97 -19.5h86v-172h-86q-86 0 -163 33t-134 89t-92 132t-37 162 q-109 14 -203 66.5t-162.5 131t-107.5 180t-39 214.5zM256 973q0 -88 34 -166t91 -135.5t135 -91t166 -33.5t166 33.5t136 91t92 135.5t34 166t-34 166t-92 135t-136 91t-166 34t-166 -34t-135 -91t-91 -135t-34 -166z" />
<glyph unicode="R" horiz-adv-x="1366" d="M170 0v1536h633q88 0 166 -34t135 -91t91 -135t34 -166t-34 -166t-91 -136t-135 -92t-166 -34h-166l682 -682h-242l-682 682h-53v-682h-172zM342 854h461q53 0 99 20.5t81 55.5t55.5 81t20.5 99t-20.5 99t-55.5 81t-81 55.5t-99 20.5h-461v-512z" />
<glyph unicode="S" d="M86 1126q0 92 36 173t101.5 141.5t160.5 95.5t214 35q106 0 194.5 -29t153 -80t105.5 -119.5t53 -148.5h-174q-25 90 -109 147.5t-223 57.5q-82 0 -145.5 -21.5t-107.5 -58.5t-66.5 -86t-22.5 -107q0 -57 22.5 -106t66.5 -86t107.5 -58.5t145.5 -21.5q119 0 213 -35 t160.5 -95t102.5 -141t36 -173t-36 -173t-102.5 -141.5t-160.5 -95.5t-213 -35q-109 0 -197 29t-152.5 80t-105.5 119.5t-53 148.5h174q25 -90 110 -147.5t224 -57.5q82 0 145.5 21.5t106.5 58.5t65.5 86t22.5 107q0 57 -22.5 106t-65.5 86t-106.5 58.5t-145.5 21.5 q-119 0 -214 35t-160.5 95t-101.5 141t-36 173z" />
<glyph unicode="T" d="M0 1366v170h1194v-170h-512v-1366h-170v1366h-512z" />
<glyph unicode="U" horiz-adv-x="1366" d="M170 477v1059h172v-1059q0 -72 26.5 -133t72.5 -107.5t107.5 -73t133.5 -26.5q70 0 132.5 26.5t109.5 73t73.5 108t26.5 132.5v1059h170v-1059q0 -106 -40 -199.5t-109.5 -163t-163 -109.5t-199.5 -40t-199.5 40t-163 109.5t-109.5 163t-40 199.5z" />
<glyph unicode="V" horiz-adv-x="1280" d="M-4 1536h182l463 -1274l461 1274h182l-559 -1536h-170z" />
<glyph unicode="W" horiz-adv-x="1705" d="M8 1536h180l351 -1167l315 868l315 -868l351 1167h178l-461 -1536h-104l-279 768l-279 -768h-106z" />
<glyph unicode="X" horiz-adv-x="1536" d="M104 0l558 768l-558 768h211l453 -623l453 623h211l-558 -768l558 -768h-211l-453 623l-453 -623h-211z" />
<glyph unicode="Y" horiz-adv-x="1280" d="M-25 1536h213l453 -623l451 623h213l-580 -797v-739h-170v739z" />
<glyph unicode="Z" horiz-adv-x="1536" d="M170 0v92l926 1274h-926v170h1196v-92l-926 -1274h926v-170h-1196z" />
<glyph unicode="[" horiz-adv-x="854" d="M170 0v1536h512v-170h-340v-1196h340v-170h-512z" />
<glyph unicode="\" horiz-adv-x="854" d="M106 1536h181l461 -1536h-181z" />
<glyph unicode="]" horiz-adv-x="854" d="M170 0v170h342v1196h-342v170h512v-1536h-512z" />
<glyph unicode="_" d="M170 0v170h854v-170h-854z" />
<glyph unicode="`" d="M219 1706h242l342 -340h-242z" />
<glyph unicode="a" d="M170 393v410q0 88 34 166t92 135t136 91t166 34t166 -34t135 -91t91 -135t34 -166v-547q0 -35 25.5 -60.5t60.5 -25.5h84v-170h-84q-61 0 -114.5 26.5t-88.5 71.5q-59 -61 -138 -97t-171 -36q-88 0 -166 34t-136 92.5t-92 136t-34 165.5zM342 393q0 -53 20.5 -99 t55.5 -81t81 -55.5t99 -20.5t99 20.5t81 55.5t55.5 81t20.5 99v410q0 53 -20.5 99t-55.5 81t-81 55.5t-99 20.5t-99 -20.5t-81 -55.5t-55.5 -81t-20.5 -99v-410z" />
<glyph unicode="b" d="M170 393v1143h172v-393q109 86 256 86q88 0 166 -34t135 -91t91 -135t34 -166v-410q0 -88 -34 -165.5t-91 -136t-135 -92.5t-166 -34t-166 34t-136 92.5t-92 136t-34 165.5zM342 393q0 -53 20.5 -99t55.5 -81t81 -55.5t99 -20.5t99 20.5t81 55.5t55.5 81t20.5 99v410 q0 53 -20.5 99t-55.5 81t-81 55.5t-99 20.5t-99 -20.5t-81 -55.5t-55.5 -81t-20.5 -99v-410z" />
<glyph unicode="c" d="M170 393v410q0 88 34 166t92 135t136 91t166 34t166 -34t135 -91t91 -135t34 -166h-170q0 53 -20.5 99t-55.5 81t-81 55.5t-99 20.5t-99 -20.5t-81 -55.5t-55.5 -81t-20.5 -99v-410q0 -53 20.5 -99t55.5 -81t81 -55.5t99 -20.5t99 20.5t81 55.5t55.5 81t20.5 99h170 q0 -88 -34 -165.5t-91 -136t-135 -92.5t-166 -34t-166 34t-136 92.5t-92 136t-34 165.5z" />
<glyph unicode="d" d="M170 393v410q0 88 34 166t92 135t136 91t166 34q145 0 256 -86v393h170v-1280q0 -35 25.5 -60.5t60.5 -25.5h84v-170h-84q-61 0 -114.5 26.5t-88.5 71.5q-59 -61 -138 -97t-171 -36q-88 0 -166 34t-136 92.5t-92 136t-34 165.5zM342 393q0 -53 20.5 -99t55.5 -81 t81 -55.5t99 -20.5t99 20.5t81 55.5t55.5 81t20.5 99v410q0 53 -20.5 99t-55.5 81t-81 55.5t-99 20.5t-99 -20.5t-81 -55.5t-55.5 -81t-20.5 -99v-410z" />
<glyph unicode="e" d="M170 393v410q0 88 34 166t92 135t136 91t166 34t166 -34t135 -91t91 -135t34 -166v-172h-682v-238q0 -53 20.5 -99t55.5 -81t81 -55.5t99 -20.5t99 20.5t81 55.5t55.5 81t20.5 99h170q0 -88 -34 -165.5t-91 -136t-135 -92.5t-166 -34t-166 34t-136 92.5t-92 136 t-34 165.5zM342 803h512q0 53 -20.5 99t-55.5 81t-81 55.5t-99 20.5t-99 -20.5t-81 -55.5t-55.5 -81t-20.5 -99z" />
<glyph unicode="f" horiz-adv-x="681" d="M86 1024v170h170v86q0 53 20.5 99t55.5 81t81 55.5t99 20.5h86v-170h-86q-35 0 -60.5 -25.5t-25.5 -60.5v-86h172v-170h-172v-1024h-170v1024h-170z" />
<glyph unicode="g" d="M170 51h172q0 -53 20.5 -99t55.5 -81t81 -55.5t99 -20.5t99 20.5t81 55.5t55.5 81t20.5 99v170q-53 -41 -118.5 -62.5t-137.5 -21.5q-88 0 -166 34t-136 91t-92 135t-34 166v240q0 88 34 166t92 135t136 91t166 34q145 0 256 -86v51h170v-1141q0 -88 -34 -165.5t-91 -136 t-135 -92.5t-166 -34t-166 34t-136 91t-92 135t-34 166zM342 563q0 -53 20.5 -99t55.5 -81t81 -55.5t99 -20.5t99 20.5t81 55.5t55.5 81t20.5 99v240q0 53 -20.5 99t-55.5 81t-81 55.5t-99 20.5t-99 -20.5t-81 -55.5t-55.5 -81t-20.5 -99v-240z" />
<glyph unicode="h" d="M170 0v1536h172v-393q109 86 256 86q88 0 166 -34t135 -91t91 -135t34 -166v-803h-170v803q0 53 -20.5 99t-55.5 81t-81 55.5t-99 20.5t-99 -20.5t-81 -55.5t-55.5 -81t-20.5 -99v-803h-172z" />
<glyph unicode="i" horiz-adv-x="512" d="M170 256v938h172v-938q0 -35 24.5 -60.5t59.5 -25.5h86v-170h-86q-53 0 -99 20.5t-81 55.5t-55.5 81t-20.5 99zM170 1366v170h172v-170h-172z" />
<glyph unicode="j" horiz-adv-x="512" d="M0 -170h86q35 0 59.5 24.5t24.5 59.5v1280h172v-1280q0 -53 -20.5 -99t-55.5 -81t-81 -55.5t-99 -20.5h-86v172zM170 1366v170h172v-170h-172z" />
<glyph unicode="k" horiz-adv-x="937" d="M170 0v1536h172v-913l430 571h209l-449 -596l449 -598h-209l-346 459l-84 -115v-344h-172z" />
<glyph unicode="l" horiz-adv-x="512" d="M170 256v1280h172v-1280q0 -35 24.5 -60.5t59.5 -25.5h86v-170h-86q-53 0 -99 20.5t-81 55.5t-55.5 81t-20.5 99z" />
<glyph unicode="m" horiz-adv-x="1536" d="M170 0v1194h172v-10q78 45 170 45q78 0 143.5 -31t112.5 -84q47 53 112.5 84t143.5 31q70 0 132.5 -26.5t109.5 -74t73.5 -110t26.5 -131.5v-887h-172v887q0 72 -49 122t-121 50t-121 -50.5t-49 -121.5v-887h-172v887q0 72 -49 122t-121 50t-121 -50.5t-49 -121.5v-887 h-172z" />
<glyph unicode="n" d="M170 0v1194h172v-51q109 86 256 86q88 0 166 -34t135 -91t91 -135t34 -166v-803h-170v803q0 53 -20.5 99t-55.5 81t-81 55.5t-99 20.5t-99 -20.5t-81 -55.5t-55.5 -81t-20.5 -99v-803h-172z" />
<glyph unicode="o" d="M170 393v410q0 88 34 166t92 135t136 91t166 34t166 -34t135 -91t91 -135t34 -166v-410q0 -88 -34 -165.5t-91 -136t-135 -92.5t-166 -34t-166 34t-136 92.5t-92 136t-34 165.5zM342 393q0 -53 20.5 -99t55.5 -81t81 -55.5t99 -20.5t99 20.5t81 55.5t55.5 81t20.5 99v410 q0 53 -20.5 99t-55.5 81t-81 55.5t-99 20.5t-99 -20.5t-81 -55.5t-55.5 -81t-20.5 -99v-410z" />
<glyph unicode="p" d="M170 -342v1536h172v-51q109 86 256 86q88 0 166 -34t135 -91t91 -135t34 -166v-410q0 -88 -34 -165.5t-91 -136t-135 -92.5t-166 -34q-72 0 -137.5 22.5t-118.5 63.5v-393h-172zM342 393q0 -53 20.5 -99t55.5 -81t81 -55.5t99 -20.5t99 20.5t81 55.5t55.5 81t20.5 99v410 q0 53 -20.5 99t-55.5 81t-81 55.5t-99 20.5t-99 -20.5t-81 -55.5t-55.5 -81t-20.5 -99v-410z" />
<glyph unicode="q" d="M170 393v410q0 88 34 166t92 135t136 91t166 34t166 -34t135 -91t91 -135t34 -166v-410v-479q0 -35 25.5 -59.5t60.5 -24.5h84v-172h-84q-53 0 -99 20.5t-81 55.5t-55.5 81t-20.5 99v137q-53 -41 -118.5 -63.5t-137.5 -22.5q-88 0 -166 34t-136 92.5t-92 136t-34 165.5z M342 393q0 -53 20.5 -99t55.5 -81t81 -55.5t99 -20.5t99 20.5t81 55.5t55.5 81t20.5 99v410q0 53 -20.5 99t-55.5 81t-81 55.5t-99 20.5t-99 -20.5t-81 -55.5t-55.5 -81t-20.5 -99v-410z" />
<glyph unicode="r" horiz-adv-x="641" d="M170 0v1194h172v-51q109 86 256 86v-170q-53 0 -99 -20.5t-81 -55.5t-55.5 -81t-20.5 -99v-803h-172z" />
<glyph unicode="s" d="M170 393h172q0 -53 20.5 -99t55.5 -81t81 -55.5t99 -20.5q66 0 114 17.5t79.5 45t47 60.5t15.5 64t-15.5 64.5t-47 61t-79.5 45t-114 17.5q-109 0 -188.5 33t-133 84t-80 114.5t-26.5 126.5t26.5 127t80 115t133 84t188.5 33q88 0 166 -34t135 -91t91 -135t34 -166h-170 q0 53 -20.5 99t-55.5 81t-81 55.5t-99 20.5q-66 0 -114 -17.5t-79.5 -45t-47 -61.5t-15.5 -65t15.5 -64.5t47 -61t79.5 -45t114 -17.5q106 0 186 -32t133.5 -83t80 -115.5t26.5 -127.5t-26.5 -127t-80 -115t-133 -84t-186.5 -33q-88 0 -166 34t-136 92.5t-92 136t-34 165.5z " />
<glyph unicode="t" horiz-adv-x="681" d="M86 1024v170h170v342h170v-342h172v-170h-172v-768q0 -35 25.5 -60.5t60.5 -25.5h86v-170h-86q-53 0 -99 20.5t-81 55.5t-55.5 81t-20.5 99v768h-170z" />
<glyph unicode="u" d="M170 393v801h172v-801q0 -53 20.5 -99t55.5 -81t81 -55.5t99 -20.5t99 20.5t81 55.5t55.5 81t20.5 99v801h170v-938q0 -35 25.5 -60.5t60.5 -25.5h84v-170h-84q-61 0 -114.5 26.5t-88.5 71.5q-59 -61 -138 -97t-171 -36q-88 0 -166 34t-136 92.5t-92 136t-34 165.5z" />
<glyph unicode="v" horiz-adv-x="1024" d="M-8 1194h182l338 -932l338 932h182l-434 -1194h-172z" />
<glyph unicode="w" horiz-adv-x="1536" d="M-8 1194h182l338 -932l166 457l-174 475h182l338 -932l338 932h182l-434 -1194h-172l-170 469l-170 -469h-172z" />
<glyph unicode="x" horiz-adv-x="1024" d="M-43 0l451 598l-451 596h211l344 -457l344 457h211l-451 -596l451 -598h-211l-344 459l-344 -459h-211z" />
<glyph unicode="y" horiz-adv-x="1024" d="M-8 1194h182l338 -932l338 932h182l-557 -1536h-182l129 354z" />
<glyph unicode="z" horiz-adv-x="1024" d="M86 0v170l643 854h-643v170h852v-170l-643 -854h643v-170h-852z" />
<glyph unicode="{" horiz-adv-x="854" d="M170 512v170h86q35 0 60.5 25.5t25.5 60.5v512q0 53 20.5 99t55.5 81t81 55.5t99 20.5h84v-170h-84q-35 0 -60.5 -25.5t-25.5 -60.5v-512q0 -98 -66 -170q31 -35 48.5 -79t17.5 -93v-512q0 -35 25.5 -59.5t60.5 -24.5h84v-172h-84q-53 0 -99 20.5t-81 55.5t-55.5 81 t-20.5 99v512q0 35 -25.5 60.5t-60.5 25.5h-86z" />
<glyph unicode="|" horiz-adv-x="854" d="M342 -170v1876h170v-1876h-170z" />
<glyph unicode="}" horiz-adv-x="854" d="M170 -170h86q35 0 60.5 24.5t25.5 59.5v512q0 49 17.5 93t46.5 79q-29 35 -46.5 78t-17.5 92v512q0 35 -25.5 60.5t-60.5 25.5h-86v170h86q53 0 99 -20.5t81 -55.5t55.5 -81t20.5 -99v-512q0 -35 25.5 -60.5t60.5 -25.5h84v-170h-84q-35 0 -60.5 -25.5t-25.5 -60.5v-512 q0 -53 -20.5 -99t-55.5 -81t-81 -55.5t-99 -20.5h-86v172z" />
<glyph unicode="&#xa2;" d="M170 563v410q0 88 34 166t92 135t136 91t166 34q23 0 46.5 -2t45.5 -8l45 147h178l-65 -219q80 -57 128 -147.5t48 -196.5h-170q0 47 -15.5 88t-43.5 76l-248 -826q12 -2 24.5 -3t26.5 -1q53 0 99 20.5t81 55.5t55.5 81t20.5 99h170q0 -88 -34 -166t-91 -135t-135 -91 t-166 -34q-27 0 -51.5 3t-48.5 7l-45 -147h-179l66 223q-78 59 -124 147.5t-46 192.5zM342 563q0 -45 14.5 -85t38.5 -72l246 819q-10 2 -21.5 3t-21.5 1q-53 0 -99 -20.5t-81 -55.5t-55.5 -81t-20.5 -99v-410z" />
<glyph unicode="&#xa3;" horiz-adv-x="1110" d="M170 0v1143q0 88 34 165.5t92 136t136 92.5t166 34q82 0 154.5 -29t129 -80t93.5 -119.5t47 -148.5h-174q-16 88 -87 146.5t-163 58.5q-53 0 -99 -20.5t-81 -55.5t-55.5 -81t-20.5 -99v-461h340v-170h-340v-342h682v-170h-854z" />
<glyph unicode="&#xa5;" horiz-adv-x="1280" d="M-25 1536h213l453 -623l451 623h213l-373 -512h178v-170h-303l-82 -115v-57h385v-170h-385v-512h-170v512h-385v170h385v57l-82 115h-303v170h178z" />
<glyph unicode="&#xa8;" d="M342 1366v170h170v-170h-170zM682 1366v170h172v-170h-172z" />
<glyph unicode="&#xad;" d="M170 512v170h854v-170h-854z" />
<glyph unicode="&#xb4;" d="M391 1366l340 340h242l-342 -340h-240z" />
<glyph unicode="&#xc0;" horiz-adv-x="1280" d="M-4 0l559 1536h170l559 -1536h-182l-123 342h-678l-123 -342h-182zM262 2048h242l342 -342h-242zM362 512h556l-277 762z" />
<glyph unicode="&#xc1;" horiz-adv-x="1280" d="M-4 0l559 1536h170l559 -1536h-182l-123 342h-678l-123 -342h-182zM362 512h556l-277 762zM434 1706l340 342h242l-342 -342h-240z" />
<glyph unicode="&#xc2;" horiz-adv-x="1280" d="M-4 0l559 1536h170l559 -1536h-182l-123 342h-678l-123 -342h-182zM264 1706l340 342h72l340 -342h-240l-135 137l-137 -137h-240zM362 512h556l-277 762z" />
<glyph unicode="&#xc3;" horiz-adv-x="1280" d="M-4 0l559 1536h170l559 -1536h-182l-123 342h-678l-123 -342h-182zM270 1706q0 53 20.5 99t55.5 81t82 55.5t100 20.5q51 0 84 -13.5t55.5 -28.5t42 -28.5t44.5 -13.5q35 0 59.5 24.5t24.5 59.5h170q0 -53 -19.5 -99t-54.5 -81t-81 -55.5t-99 -20.5t-86 13.5t-55.5 29.5 t-41 29.5t-43.5 13.5q-37 0 -61.5 -25.5t-24.5 -60.5h-172zM362 512h556l-277 762z" />
<glyph unicode="&#xc4;" horiz-adv-x="1280" d="M-4 0l559 1536h170l559 -1536h-182l-123 342h-678l-123 -342h-182zM362 512h556l-277 762zM383 1706v172h172v-172h-172zM725 1706v172h172v-172h-172z" />
<glyph unicode="&#xc5;" horiz-adv-x="1280" d="M-4 0l563 1548q-78 27 -126 92.5t-48 151.5q0 53 19.5 99t54.5 81t82 55.5t100 20.5t99 -20.5t81 -55.5t55.5 -81t20.5 -99q0 -86 -49 -151.5t-127 -92.5l563 -1548h-182l-123 342h-678l-123 -342h-182zM362 512h556l-277 762zM555 1792q0 -35 24.5 -60.5t59.5 -25.5 q37 0 61.5 25.5t24.5 60.5t-24.5 60.5t-59.5 25.5q-37 0 -61.5 -25.5t-24.5 -60.5z" />
<glyph unicode="&#xc7;" horiz-adv-x="1280" d="M170 477v582q0 106 40 199.5t109.5 163t162.5 109.5t200 40q88 0 168 -29t144.5 -79t111.5 -118.5t70 -148.5h-181q-41 92 -125 147.5t-188 55.5q-72 0 -133.5 -26.5t-107.5 -73t-72.5 -109t-26.5 -131.5v-582q0 -72 26.5 -133t72.5 -107.5t107.5 -73t133.5 -26.5 q106 0 189 56.5t124 148.5h181q-18 -72 -57.5 -133.5t-92.5 -109.5t-118.5 -80.5t-139.5 -45.5v-59q0 -53 -20.5 -99t-55.5 -81t-81 -55.5t-99 -20.5h-86v172h86q35 0 60.5 24.5t25.5 59.5v59q-92 14 -170 59.5t-135 113t-90 151.5t-33 180z" />
<glyph unicode="&#xc8;" d="M137 426q0 104 46 193.5t124 148.5q-78 59 -124 148.5t-46 193.5q0 88 34 166t91 135t135 91t166 34h461v-170h-461q-53 0 -99 -20.5t-81 -55.5t-55.5 -81t-20.5 -99t20.5 -99t55.5 -81t81 -55.5t99 -20.5h461v-172h-461q-53 0 -99 -20.5t-81 -55.5t-55.5 -81t-20.5 -99 t20.5 -99t55.5 -81t81 -55.5t99 -20.5h461v-170h-461q-88 0 -166 34t-135 91t-91 135t-34 166zM219 2048h242l342 -342h-242z" />
<glyph unicode="&#xc9;" d="M137 426q0 104 46 193.5t124 148.5q-78 59 -124 148.5t-46 193.5q0 88 34 166t91 135t135 91t166 34h461v-170h-461q-53 0 -99 -20.5t-81 -55.5t-55.5 -81t-20.5 -99t20.5 -99t55.5 -81t81 -55.5t99 -20.5h461v-172h-461q-53 0 -99 -20.5t-81 -55.5t-55.5 -81t-20.5 -99 t20.5 -99t55.5 -81t81 -55.5t99 -20.5h461v-170h-461q-88 0 -166 34t-135 91t-91 135t-34 166zM391 1706l340 342h242l-342 -342h-240z" />
<glyph unicode="&#xca;" d="M137 426q0 104 46 193.5t124 148.5q-78 59 -124 148.5t-46 193.5q0 88 34 166t91 135t135 91t166 34h461v-170h-461q-53 0 -99 -20.5t-81 -55.5t-55.5 -81t-20.5 -99t20.5 -99t55.5 -81t81 -55.5t99 -20.5h461v-172h-461q-53 0 -99 -20.5t-81 -55.5t-55.5 -81t-20.5 -99 t20.5 -99t55.5 -81t81 -55.5t99 -20.5h461v-170h-461q-88 0 -166 34t-135 91t-91 135t-34 166zM219 1706l342 342h70l342 -342h-242l-135 137l-135 -137h-242z" />
<glyph unicode="&#xcb;" d="M137 426q0 104 46 193.5t124 148.5q-78 59 -124 148.5t-46 193.5q0 88 34 166t91 135t135 91t166 34h461v-170h-461q-53 0 -99 -20.5t-81 -55.5t-55.5 -81t-20.5 -99t20.5 -99t55.5 -81t81 -55.5t99 -20.5h461v-172h-461q-53 0 -99 -20.5t-81 -55.5t-55.5 -81t-20.5 -99 t20.5 -99t55.5 -81t81 -55.5t99 -20.5h461v-170h-461q-88 0 -166 34t-135 91t-91 135t-34 166zM342 1706v172h170v-172h-170zM682 1706v172h172v-172h-172z" />
<glyph unicode="&#xcc;" horiz-adv-x="512" d="M-121 2048h240l342 -342h-240zM170 0v1536h172v-1536h-172z" />
<glyph unicode="&#xcd;" horiz-adv-x="512" d="M49 1706l342 342h240l-340 -342h-242zM170 0v1536h172v-1536h-172z" />
<glyph unicode="&#xce;" horiz-adv-x="512" d="M-121 1706l342 342h70l342 -342h-242l-135 137l-135 -137h-242zM170 0v1536h172v-1536h-172z" />
<glyph unicode="&#xcf;" horiz-adv-x="512" d="M0 1706v172h170v-172h-170zM170 0v1536h172v-1536h-172zM342 1706v172h170v-172h-170z" />
<glyph unicode="&#xd1;" horiz-adv-x="1366" d="M170 0v1536h100l754 -754v754h170v-1536h-170v541l-682 684v-1225h-172zM313 1706q0 53 20.5 99t55.5 81t81 55.5t99 20.5q51 0 85 -13.5t56.5 -28.5t41 -28.5t43.5 -13.5q35 0 60.5 24.5t25.5 59.5h170q0 -53 -20.5 -99t-55.5 -81t-81 -55.5t-99 -20.5q-51 0 -84 13.5 t-55.5 29.5t-42 29.5t-44.5 13.5q-35 0 -59.5 -25.5t-24.5 -60.5h-172z" />
<glyph unicode="&#xd2;" horiz-adv-x="1366" d="M170 477v582q0 106 40 199.5t109.5 163t162.5 109.5t200 40q106 0 199.5 -40t163 -109.5t109.5 -163t40 -199.5v-582q0 -106 -40 -199.5t-109.5 -163t-163 -109.5t-199.5 -40t-199.5 40t-163 109.5t-109.5 163t-40 199.5zM305 2048h242l340 -342h-240zM342 477 q0 -72 26.5 -133t72.5 -107.5t107.5 -73t133.5 -26.5q70 0 132.5 26.5t109.5 73t73.5 108t26.5 132.5v582q0 70 -26.5 132t-73.5 108.5t-109.5 73t-132.5 26.5q-72 0 -133.5 -26.5t-107.5 -73t-72.5 -109t-26.5 -131.5v-582z" />
<glyph unicode="&#xd3;" horiz-adv-x="1366" d="M170 477v582q0 106 40 199.5t109.5 163t162.5 109.5t200 40q106 0 199.5 -40t163 -109.5t109.5 -163t40 -199.5v-582q0 -106 -40 -199.5t-109.5 -163t-163 -109.5t-199.5 -40t-199.5 40t-163 109.5t-109.5 163t-40 199.5zM342 477q0 -72 26.5 -133t72.5 -107.5t107.5 -73 t133.5 -26.5q70 0 132.5 26.5t109.5 73t73.5 108t26.5 132.5v582q0 70 -26.5 132t-73.5 108.5t-109.5 73t-132.5 26.5q-72 0 -133.5 -26.5t-107.5 -73t-72.5 -109t-26.5 -131.5v-582zM475 1706l342 342h242l-342 -342h-242z" />
<glyph unicode="&#xd4;" horiz-adv-x="1366" d="M170 477v582q0 106 40 199.5t109.5 163t162.5 109.5t200 40q106 0 199.5 -40t163 -109.5t109.5 -163t40 -199.5v-582q0 -106 -40 -199.5t-109.5 -163t-163 -109.5t-199.5 -40t-199.5 40t-163 109.5t-109.5 163t-40 199.5zM307 1706l340 342h70l342 -342h-240l-137 137 l-135 -137h-240zM342 477q0 -72 26.5 -133t72.5 -107.5t107.5 -73t133.5 -26.5q70 0 132.5 26.5t109.5 73t73.5 108t26.5 132.5v582q0 70 -26.5 132t-73.5 108.5t-109.5 73t-132.5 26.5q-72 0 -133.5 -26.5t-107.5 -73t-72.5 -109t-26.5 -131.5v-582z" />
<glyph unicode="&#xd5;" horiz-adv-x="1366" d="M170 477v582q0 106 40 199.5t109.5 163t162.5 109.5t200 40q106 0 199.5 -40t163 -109.5t109.5 -163t40 -199.5v-582q0 -106 -40 -199.5t-109.5 -163t-163 -109.5t-199.5 -40t-199.5 40t-163 109.5t-109.5 163t-40 199.5zM313 1706q0 53 20.5 99t55.5 81t81 55.5t99 20.5 q51 0 85 -13.5t56.5 -28.5t41 -28.5t43.5 -13.5q35 0 60.5 24.5t25.5 59.5h170q0 -53 -20.5 -99t-55.5 -81t-81 -55.5t-99 -20.5q-51 0 -84 13.5t-55.5 29.5t-42 29.5t-44.5 13.5q-35 0 -59.5 -25.5t-24.5 -60.5h-172zM342 477q0 -72 26.5 -133t72.5 -107.5t107.5 -73 t133.5 -26.5q70 0 132.5 26.5t109.5 73t73.5 108t26.5 132.5v582q0 70 -26.5 132t-73.5 108.5t-109.5 73t-132.5 26.5q-72 0 -133.5 -26.5t-107.5 -73t-72.5 -109t-26.5 -131.5v-582z" />
<glyph unicode="&#xd6;" horiz-adv-x="1366" d="M170 477v582q0 106 40 199.5t109.5 163t162.5 109.5t200 40q106 0 199.5 -40t163 -109.5t109.5 -163t40 -199.5v-582q0 -106 -40 -199.5t-109.5 -163t-163 -109.5t-199.5 -40t-199.5 40t-163 109.5t-109.5 163t-40 199.5zM342 477q0 -72 26.5 -133t72.5 -107.5t107.5 -73 t133.5 -26.5q70 0 132.5 26.5t109.5 73t73.5 108t26.5 132.5v582q0 70 -26.5 132t-73.5 108.5t-109.5 73t-132.5 26.5q-72 0 -133.5 -26.5t-107.5 -73t-72.5 -109t-26.5 -131.5v-582zM426 1706v172h172v-172h-172zM768 1706v172h170v-172h-170z" />
<glyph unicode="&#xd8;" horiz-adv-x="1366" d="M18 2l197 268q-45 100 -45 207v582q0 106 40 199.5t109.5 163t162.5 109.5t200 40q109 0 202 -41t163 -113l88 121h213l-199 -270q23 -47 34 -100.5t11 -108.5v-582q0 -106 -40 -199.5t-109.5 -163t-163 -109.5t-199.5 -40q-109 0 -202 42t-165 114l-84 -119h-213z M342 449l602 827q-47 57 -114.5 90t-147.5 33q-72 0 -133.5 -26.5t-107.5 -73t-72.5 -109t-26.5 -131.5v-582v-28zM418 262q47 -59 115.5 -92t148.5 -33q70 0 132.5 26.5t109.5 73t73.5 108t26.5 132.5v582v16t-2 17z" />
<glyph unicode="&#xd9;" horiz-adv-x="1366" d="M170 477v1059h172v-1059q0 -72 26.5 -133t72.5 -107.5t107.5 -73t133.5 -26.5q70 0 132.5 26.5t109.5 73t73.5 108t26.5 132.5v1059h170v-1059q0 -106 -40 -199.5t-109.5 -163t-163 -109.5t-199.5 -40t-199.5 40t-163 109.5t-109.5 163t-40 199.5zM305 2048h242l340 -342 h-240z" />
<glyph unicode="&#xda;" horiz-adv-x="1366" d="M170 477v1059h172v-1059q0 -72 26.5 -133t72.5 -107.5t107.5 -73t133.5 -26.5q70 0 132.5 26.5t109.5 73t73.5 108t26.5 132.5v1059h170v-1059q0 -106 -40 -199.5t-109.5 -163t-163 -109.5t-199.5 -40t-199.5 40t-163 109.5t-109.5 163t-40 199.5zM475 1706l342 342h242 l-342 -342h-242z" />
<glyph unicode="&#xdb;" horiz-adv-x="1366" d="M170 477v1059h172v-1059q0 -72 26.5 -133t72.5 -107.5t107.5 -73t133.5 -26.5q70 0 132.5 26.5t109.5 73t73.5 108t26.5 132.5v1059h170v-1059q0 -106 -40 -199.5t-109.5 -163t-163 -109.5t-199.5 -40t-199.5 40t-163 109.5t-109.5 163t-40 199.5zM307 1706l340 342h70 l342 -342h-240l-137 137l-135 -137h-240z" />
<glyph unicode="&#xdc;" horiz-adv-x="1366" d="M170 477v1059h172v-1059q0 -72 26.5 -133t72.5 -107.5t107.5 -73t133.5 -26.5q70 0 132.5 26.5t109.5 73t73.5 108t26.5 132.5v1059h170v-1059q0 -106 -40 -199.5t-109.5 -163t-163 -109.5t-199.5 -40t-199.5 40t-163 109.5t-109.5 163t-40 199.5zM426 1706v172h172v-172 h-172zM768 1706v172h170v-172h-170z" />
<glyph unicode="&#xdf;" d="M170 0v1143q0 88 34 165.5t92 136t136 92.5t166 34t166 -34t135 -92.5t91 -136t34 -165.5q0 -104 -46 -192.5t-124 -147.5q78 -59 124 -148.5t46 -193.5v-68q0 -88 -34 -165.5t-91 -136t-135 -92.5t-166 -34v172q53 0 99 20.5t81 55.5t55.5 81t20.5 99v68q0 53 -20.5 99 t-55.5 81t-81 55.5t-99 20.5v170q53 0 99 20.5t81 55t55.5 81t20.5 99.5t-20.5 99t-55.5 81t-81 55.5t-99 20.5t-99 -20.5t-81 -55.5t-55.5 -81t-20.5 -99v-1143h-172z" />
<glyph unicode="&#xe0;" d="M170 393v410q0 88 34 166t92 135t136 91t166 34t166 -34t135 -91t91 -135t34 -166v-547q0 -35 25.5 -60.5t60.5 -25.5h84v-170h-84q-61 0 -114.5 26.5t-88.5 71.5q-59 -61 -138 -97t-171 -36q-88 0 -166 34t-136 92.5t-92 136t-34 165.5zM219 1706h242l342 -340h-242z M342 393q0 -53 20.5 -99t55.5 -81t81 -55.5t99 -20.5t99 20.5t81 55.5t55.5 81t20.5 99v410q0 53 -20.5 99t-55.5 81t-81 55.5t-99 20.5t-99 -20.5t-81 -55.5t-55.5 -81t-20.5 -99v-410z" />
<glyph unicode="&#xe1;" d="M170 393v410q0 88 34 166t92 135t136 91t166 34t166 -34t135 -91t91 -135t34 -166v-547q0 -35 25.5 -60.5t60.5 -25.5h84v-170h-84q-61 0 -114.5 26.5t-88.5 71.5q-59 -61 -138 -97t-171 -36q-88 0 -166 34t-136 92.5t-92 136t-34 165.5zM342 393q0 -53 20.5 -99 t55.5 -81t81 -55.5t99 -20.5t99 20.5t81 55.5t55.5 81t20.5 99v410q0 53 -20.5 99t-55.5 81t-81 55.5t-99 20.5t-99 -20.5t-81 -55.5t-55.5 -81t-20.5 -99v-410zM391 1366l340 340h242l-342 -340h-240z" />
<glyph unicode="&#xe2;" d="M170 393v410q0 88 34 166t92 135t136 91t166 34t166 -34t135 -91t91 -135t34 -166v-547q0 -35 25.5 -60.5t60.5 -25.5h84v-170h-84q-61 0 -114.5 26.5t-88.5 71.5q-59 -61 -138 -97t-171 -36q-88 0 -166 34t-136 92.5t-92 136t-34 165.5zM219 1366l342 340h70l342 -340 h-242l-135 135l-135 -135h-242zM342 393q0 -53 20.5 -99t55.5 -81t81 -55.5t99 -20.5t99 20.5t81 55.5t55.5 81t20.5 99v410q0 53 -20.5 99t-55.5 81t-81 55.5t-99 20.5t-99 -20.5t-81 -55.5t-55.5 -81t-20.5 -99v-410z" />
<glyph unicode="&#xe3;" d="M170 393v410q0 88 34 166t92 135t136 91t166 34t166 -34t135 -91t91 -135t34 -166v-547q0 -35 25.5 -60.5t60.5 -25.5h84v-170h-84q-61 0 -114.5 26.5t-88.5 71.5q-59 -61 -138 -97t-171 -36q-88 0 -166 34t-136 92.5t-92 136t-34 165.5zM229 1450q0 53 20.5 99t55.5 81 t81 55.5t99 20.5q51 0 84 -13.5t55.5 -28.5t42 -28.5t44.5 -13.5q35 0 59.5 24.5t24.5 59.5h172q0 -53 -20.5 -99t-55.5 -81t-81 -55.5t-99 -20.5t-86 13.5t-55.5 29.5t-41 29.5t-43.5 13.5q-35 0 -60.5 -25.5t-25.5 -60.5h-170zM342 393q0 -53 20.5 -99t55.5 -81t81 -55.5 t99 -20.5t99 20.5t81 55.5t55.5 81t20.5 99v410q0 53 -20.5 99t-55.5 81t-81 55.5t-99 20.5t-99 -20.5t-81 -55.5t-55.5 -81t-20.5 -99v-410z" />
<glyph unicode="&#xe4;" d="M170 393v410q0 88 34 166t92 135t136 91t166 34t166 -34t135 -91t91 -135t34 -166v-547q0 -35 25.5 -60.5t60.5 -25.5h84v-170h-84q-61 0 -114.5 26.5t-88.5 71.5q-59 -61 -138 -97t-171 -36q-88 0 -166 34t-136 92.5t-92 136t-34 165.5zM342 393q0 -53 20.5 -99 t55.5 -81t81 -55.5t99 -20.5t99 20.5t81 55.5t55.5 81t20.5 99v410q0 53 -20.5 99t-55.5 81t-81 55.5t-99 20.5t-99 -20.5t-81 -55.5t-55.5 -81t-20.5 -99v-410zM342 1366v170h170v-170h-170zM682 1366v170h172v-170h-172z" />
<glyph unicode="&#xe5;" d="M170 393v410q0 74 24.5 141.5t67.5 121.5t102.5 93t129.5 58q-68 29 -110 92t-42 141q0 53 20.5 99t55.5 81t81 55.5t99 20.5t99 -20.5t81 -55.5t55.5 -81t20.5 -99q0 -78 -43 -141.5t-111 -91.5q70 -18 129.5 -57.5t102.5 -93.5t67.5 -121.5t24.5 -141.5v-547 q0 -35 25.5 -60.5t60.5 -25.5h84v-170h-84q-61 0 -114.5 26.5t-88.5 71.5q-59 -61 -138 -97t-171 -36q-88 0 -166 34t-136 92.5t-92 136t-34 165.5zM342 393q0 -53 20.5 -99t55.5 -81t81 -55.5t99 -20.5t99 20.5t81 55.5t55.5 81t20.5 99v410q0 53 -20.5 99t-55.5 81 t-81 55.5t-99 20.5t-99 -20.5t-81 -55.5t-55.5 -81t-20.5 -99v-410zM512 1450q0 -35 25.5 -59.5t60.5 -24.5t59.5 24.5t24.5 59.5t-24.5 60.5t-59.5 25.5t-60.5 -25.5t-25.5 -60.5z" />
<glyph unicode="&#xe7;" d="M170 393v410q0 88 34 166t92 135t136 91t166 34t166 -34t135 -91t91 -135t34 -166h-170q0 53 -20.5 99t-55.5 81t-81 55.5t-99 20.5t-99 -20.5t-81 -55.5t-55.5 -81t-20.5 -99v-410q0 -53 20.5 -99t55.5 -81t81 -55.5t99 -20.5t99 20.5t81 55.5t55.5 81t20.5 99h170 q0 -78 -25.5 -147.5t-71.5 -124.5t-108.5 -93t-136.5 -53v-61q0 -53 -20.5 -99t-55.5 -81t-81 -55.5t-99 -20.5h-84v172h84q35 0 60.5 24.5t25.5 59.5v61q-74 14 -136.5 52.5t-108.5 93.5t-71.5 124.5t-25.5 147.5z" />
<glyph unicode="&#xe8;" d="M170 393v410q0 88 34 166t92 135t136 91t166 34t166 -34t135 -91t91 -135t34 -166v-172h-682v-238q0 -53 20.5 -99t55.5 -81t81 -55.5t99 -20.5t99 20.5t81 55.5t55.5 81t20.5 99h170q0 -88 -34 -165.5t-91 -136t-135 -92.5t-166 -34t-166 34t-136 92.5t-92 136 t-34 165.5zM219 1706h242l342 -340h-242zM342 803h512q0 53 -20.5 99t-55.5 81t-81 55.5t-99 20.5t-99 -20.5t-81 -55.5t-55.5 -81t-20.5 -99z" />
<glyph unicode="&#xe9;" d="M170 393v410q0 88 34 166t92 135t136 91t166 34t166 -34t135 -91t91 -135t34 -166v-172h-682v-238q0 -53 20.5 -99t55.5 -81t81 -55.5t99 -20.5t99 20.5t81 55.5t55.5 81t20.5 99h170q0 -88 -34 -165.5t-91 -136t-135 -92.5t-166 -34t-166 34t-136 92.5t-92 136 t-34 165.5zM342 803h512q0 53 -20.5 99t-55.5 81t-81 55.5t-99 20.5t-99 -20.5t-81 -55.5t-55.5 -81t-20.5 -99zM391 1366l340 340h242l-342 -340h-240z" />
<glyph unicode="&#xea;" d="M170 393v410q0 88 34 166t92 135t136 91t166 34t166 -34t135 -91t91 -135t34 -166v-172h-682v-238q0 -53 20.5 -99t55.5 -81t81 -55.5t99 -20.5t99 20.5t81 55.5t55.5 81t20.5 99h170q0 -88 -34 -165.5t-91 -136t-135 -92.5t-166 -34t-166 34t-136 92.5t-92 136 t-34 165.5zM219 1366l342 340h70l342 -340h-242l-135 135l-135 -135h-242zM342 803h512q0 53 -20.5 99t-55.5 81t-81 55.5t-99 20.5t-99 -20.5t-81 -55.5t-55.5 -81t-20.5 -99z" />
<glyph unicode="&#xeb;" d="M170 393v410q0 88 34 166t92 135t136 91t166 34t166 -34t135 -91t91 -135t34 -166v-172h-682v-238q0 -53 20.5 -99t55.5 -81t81 -55.5t99 -20.5t99 20.5t81 55.5t55.5 81t20.5 99h170q0 -88 -34 -165.5t-91 -136t-135 -92.5t-166 -34t-166 34t-136 92.5t-92 136 t-34 165.5zM342 803h512q0 53 -20.5 99t-55.5 81t-81 55.5t-99 20.5t-99 -20.5t-81 -55.5t-55.5 -81t-20.5 -99zM342 1366v170h170v-170h-170zM682 1366v170h172v-170h-172z" />
<glyph unicode="&#xec;" horiz-adv-x="512" d="M-119 1706h242l342 -340h-242zM170 256v938h172v-938q0 -35 24.5 -60.5t59.5 -25.5h86v-170h-86q-53 0 -99 20.5t-81 55.5t-55.5 81t-20.5 99z" />
<glyph unicode="&#xed;" horiz-adv-x="512" d="M51 1366l340 340h242l-342 -340h-240zM170 256v938h172v-938q0 -35 24.5 -60.5t59.5 -25.5h86v-170h-86q-53 0 -99 20.5t-81 55.5t-55.5 81t-20.5 99z" />
<glyph unicode="&#xee;" horiz-adv-x="512" d="M-119 1366l342 340h70l342 -340h-242l-135 135l-135 -135h-242zM170 256v938h172v-938q0 -35 24.5 -60.5t59.5 -25.5h86v-170h-86q-53 0 -99 20.5t-81 55.5t-55.5 81t-20.5 99z" />
<glyph unicode="&#xef;" horiz-adv-x="512" d="M2 1366v170h170v-170h-170zM170 256v938h172v-938q0 -35 24.5 -60.5t59.5 -25.5h86v-170h-86q-53 0 -99 20.5t-81 55.5t-55.5 81t-20.5 99zM342 1366v170h172v-170h-172z" />
<glyph unicode="&#xf1;" d="M170 0v1194h172v-51q109 86 256 86q88 0 166 -34t135 -91t91 -135t34 -166v-803h-170v803q0 53 -20.5 99t-55.5 81t-81 55.5t-99 20.5t-99 -20.5t-81 -55.5t-55.5 -81t-20.5 -99v-803h-172zM229 1450q0 53 20.5 99t55.5 81t81 55.5t99 20.5q51 0 84 -13.5t55.5 -28.5 t42 -28.5t44.5 -13.5q35 0 59.5 24.5t24.5 59.5h172q0 -53 -20.5 -99t-55.5 -81t-81 -55.5t-99 -20.5t-86 13.5t-55.5 29.5t-41 29.5t-43.5 13.5q-35 0 -60.5 -25.5t-25.5 -60.5h-170z" />
<glyph unicode="&#xf2;" d="M170 393v410q0 88 34 166t92 135t136 91t166 34t166 -34t135 -91t91 -135t34 -166v-410q0 -88 -34 -165.5t-91 -136t-135 -92.5t-166 -34t-166 34t-136 92.5t-92 136t-34 165.5zM219 1706h242l342 -340h-242zM342 393q0 -53 20.5 -99t55.5 -81t81 -55.5t99 -20.5t99 20.5 t81 55.5t55.5 81t20.5 99v410q0 53 -20.5 99t-55.5 81t-81 55.5t-99 20.5t-99 -20.5t-81 -55.5t-55.5 -81t-20.5 -99v-410z" />
<glyph unicode="&#xf3;" d="M170 393v410q0 88 34 166t92 135t136 91t166 34t166 -34t135 -91t91 -135t34 -166v-410q0 -88 -34 -165.5t-91 -136t-135 -92.5t-166 -34t-166 34t-136 92.5t-92 136t-34 165.5zM342 393q0 -53 20.5 -99t55.5 -81t81 -55.5t99 -20.5t99 20.5t81 55.5t55.5 81t20.5 99v410 q0 53 -20.5 99t-55.5 81t-81 55.5t-99 20.5t-99 -20.5t-81 -55.5t-55.5 -81t-20.5 -99v-410zM391 1366l340 340h242l-342 -340h-240z" />
<glyph unicode="&#xf4;" d="M170 393v410q0 88 34 166t92 135t136 91t166 34t166 -34t135 -91t91 -135t34 -166v-410q0 -88 -34 -165.5t-91 -136t-135 -92.5t-166 -34t-166 34t-136 92.5t-92 136t-34 165.5zM219 1366l342 340h70l342 -340h-242l-135 135l-135 -135h-242zM342 393q0 -53 20.5 -99 t55.5 -81t81 -55.5t99 -20.5t99 20.5t81 55.5t55.5 81t20.5 99v410q0 53 -20.5 99t-55.5 81t-81 55.5t-99 20.5t-99 -20.5t-81 -55.5t-55.5 -81t-20.5 -99v-410z" />
<glyph unicode="&#xf5;" d="M170 393v410q0 88 34 166t92 135t136 91t166 34t166 -34t135 -91t91 -135t34 -166v-410q0 -88 -34 -165.5t-91 -136t-135 -92.5t-166 -34t-166 34t-136 92.5t-92 136t-34 165.5zM229 1450q0 53 20.5 99t55.5 81t81 55.5t99 20.5q51 0 84 -13.5t55.5 -28.5t42 -28.5 t44.5 -13.5q35 0 59.5 24.5t24.5 59.5h172q0 -53 -20.5 -99t-55.5 -81t-81 -55.5t-99 -20.5t-86 13.5t-55.5 29.5t-41 29.5t-43.5 13.5q-35 0 -60.5 -25.5t-25.5 -60.5h-170zM342 393q0 -53 20.5 -99t55.5 -81t81 -55.5t99 -20.5t99 20.5t81 55.5t55.5 81t20.5 99v410 q0 53 -20.5 99t-55.5 81t-81 55.5t-99 20.5t-99 -20.5t-81 -55.5t-55.5 -81t-20.5 -99v-410z" />
<glyph unicode="&#xf6;" d="M170 393v410q0 88 34 166t92 135t136 91t166 34t166 -34t135 -91t91 -135t34 -166v-410q0 -88 -34 -165.5t-91 -136t-135 -92.5t-166 -34t-166 34t-136 92.5t-92 136t-34 165.5zM342 393q0 -53 20.5 -99t55.5 -81t81 -55.5t99 -20.5t99 20.5t81 55.5t55.5 81t20.5 99v410 q0 53 -20.5 99t-55.5 81t-81 55.5t-99 20.5t-99 -20.5t-81 -55.5t-55.5 -81t-20.5 -99v-410zM342 1366v170h170v-170h-170zM682 1366v170h172v-170h-172z" />
<glyph unicode="&#xf8;" d="M43 0l164 219q-16 41 -26.5 84t-10.5 90v410q0 88 34 166t92 135t136 91t166 34q84 0 156.5 -30t130.5 -81l57 76h211l-166 -219q37 -78 37 -172v-410q0 -88 -34 -165.5t-91 -136t-135 -92.5t-166 -34q-84 0 -156.5 30t-130.5 81l-59 -76h-209zM342 397l438 584 q-35 35 -82 56.5t-100 21.5t-99 -20.5t-81 -55.5t-55.5 -81t-20.5 -99v-406zM414 215q74 -78 184 -78q53 0 99 20.5t81 55.5t55.5 81t20.5 99v406z" />
<glyph unicode="&#xf9;" d="M170 393v801h172v-801q0 -53 20.5 -99t55.5 -81t81 -55.5t99 -20.5t99 20.5t81 55.5t55.5 81t20.5 99v801h170v-938q0 -35 25.5 -60.5t60.5 -25.5h84v-170h-84q-61 0 -114.5 26.5t-88.5 71.5q-59 -61 -138 -97t-171 -36q-88 0 -166 34t-136 92.5t-92 136t-34 165.5z M219 1706h242l342 -340h-242z" />
<glyph unicode="&#xfa;" d="M170 393v801h172v-801q0 -53 20.5 -99t55.5 -81t81 -55.5t99 -20.5t99 20.5t81 55.5t55.5 81t20.5 99v801h170v-938q0 -35 25.5 -60.5t60.5 -25.5h84v-170h-84q-61 0 -114.5 26.5t-88.5 71.5q-59 -61 -138 -97t-171 -36q-88 0 -166 34t-136 92.5t-92 136t-34 165.5z M391 1366l340 340h242l-342 -340h-240z" />
<glyph unicode="&#xfb;" d="M170 393v801h172v-801q0 -53 20.5 -99t55.5 -81t81 -55.5t99 -20.5t99 20.5t81 55.5t55.5 81t20.5 99v801h170v-938q0 -35 25.5 -60.5t60.5 -25.5h84v-170h-84q-61 0 -114.5 26.5t-88.5 71.5q-59 -61 -138 -97t-171 -36q-88 0 -166 34t-136 92.5t-92 136t-34 165.5z M219 1366l342 340h70l342 -340h-242l-135 135l-135 -135h-242z" />
<glyph unicode="&#xfc;" d="M170 393v801h172v-801q0 -53 20.5 -99t55.5 -81t81 -55.5t99 -20.5t99 20.5t81 55.5t55.5 81t20.5 99v801h170v-938q0 -35 25.5 -60.5t60.5 -25.5h84v-170h-84q-61 0 -114.5 26.5t-88.5 71.5q-59 -61 -138 -97t-171 -36q-88 0 -166 34t-136 92.5t-92 136t-34 165.5z M342 1366v170h170v-170h-170zM682 1366v170h172v-170h-172z" />
<glyph unicode="&#xff;" horiz-adv-x="1024" d="M-8 1194h182l338 -932l338 932h182l-557 -1536h-182l129 354zM258 1366v170h170v-170h-170zM598 1366v170h172v-170h-172z" />
<glyph unicode="&#x178;" horiz-adv-x="1280" d="M-25 1536h213l453 -623l451 623h213l-580 -797v-739h-170v739zM383 1706v172h172v-172h-172zM725 1706v172h172v-172h-172z" />
<glyph unicode="&#x2c6;" d="M219 1366l342 340h70l342 -340h-242l-135 135l-135 -135h-242z" />
<glyph unicode="&#x2dc;" d="M229 1450q0 53 20.5 99t55.5 81t81 55.5t99 20.5q51 0 84 -13.5t55.5 -28.5t42 -28.5t44.5 -13.5q35 0 59.5 24.5t24.5 59.5h172q0 -53 -20.5 -99t-55.5 -81t-81 -55.5t-99 -20.5t-86 13.5t-55.5 29.5t-41 29.5t-43.5 13.5q-35 0 -60.5 -25.5t-25.5 -60.5h-170z" />
<glyph unicode="&#x2000;" horiz-adv-x="1024" />
<glyph unicode="&#x2001;" horiz-adv-x="2048" />
<glyph unicode="&#x2002;" horiz-adv-x="1024" />
<glyph unicode="&#x2003;" horiz-adv-x="2048" />
<glyph unicode="&#x2004;" horiz-adv-x="682" />
<glyph unicode="&#x2005;" horiz-adv-x="512" />
<glyph unicode="&#x2006;" horiz-adv-x="341" />
<glyph unicode="&#x2007;" horiz-adv-x="341" />
<glyph unicode="&#x2008;" horiz-adv-x="256" />
<glyph unicode="&#x2009;" horiz-adv-x="409" />
<glyph unicode="&#x200a;" horiz-adv-x="113" />
<glyph unicode="&#x2010;" d="M170 512v170h854v-170h-854z" />
<glyph unicode="&#x2011;" d="M170 512v170h854v-170h-854z" />
<glyph unicode="&#x2012;" d="M170 512v170h854v-170h-854z" />
<glyph unicode="&#x2013;" horiz-adv-x="1363" d="M170 512v170h1024v-170h-1024z" />
<glyph unicode="&#x2014;" horiz-adv-x="2387" d="M170 512v170h2048v-170h-2048z" />
<glyph unicode="&#x202f;" horiz-adv-x="409" />
<glyph unicode="&#x205f;" horiz-adv-x="512" />
<glyph unicode="&#x20ac;" horiz-adv-x="1280" d="M170 477v582q0 106 40 199.5t109.5 163t162.5 109.5t200 40q88 0 168 -29t144.5 -79t111.5 -118.5t70 -148.5h-181q-41 92 -125 147.5t-188 55.5q-72 0 -133.5 -26.5t-107.5 -73t-72.5 -109t-26.5 -131.5v-35h512v-170h-512v-172h340v-170h-340v-35q0 -72 26.5 -133 t72.5 -107.5t107.5 -73t133.5 -26.5q106 0 189 56.5t124 148.5h181q-23 -82 -70 -150.5t-111.5 -118.5t-144.5 -79t-168 -29q-106 0 -199.5 40t-163 109.5t-109.5 163t-40 199.5z" />
<glyph unicode="&#xe000;" horiz-adv-x="1198" d="M0 0v1198h1198v-1198h-1198z" />
</font>
</defs>
</svg>
